<?xml version="1.0" encoding="UTF-8"?>
<svg id="Layer_1" xmlns="http://www.w3.org/2000/svg" viewBox="0 0 1000 243.19">
  <path d="M193.25,153.33c0,25.93-21.98,47.83-56.98,47.83s-56.56-20.41-58.9-49.53h28.17c2.56,15.31,13.87,23.17,30.73,23.17s29.24-8.08,29.24-19.77c0-9.56-5.98-15.94-19.42-18.92l-24.97-5.53c-30.09-6.38-40.12-21.9-40.12-42.09,0-24.87,21.13-46.34,53.35-46.34s52.92,21.04,55.27,48.04h-28.38c-2.35-14.03-12.59-21.68-26.89-21.68s-25.39,7.44-25.39,18.28c0,8.93,5.55,14.03,18.57,16.8l24.76,5.53c30.3,6.8,40.97,23.6,40.97,44.21h0ZM732.76,119.96c9.82-6.8,15.79-18.07,15.79-31.46s-4.91-23.6-13.23-31.68c-7.47-7.44-18.35-11.69-35.64-11.69h-54.2v153.05h58.05c17.28,0,28.38-4.46,36.28-11.91,8.32-8.08,12.8-19.34,12.8-32.1,0-15.31-7.47-27.85-19.85-34.22ZM673.21,71.5h0s26.67,0,26.67,0c8.53,0,13.44,2.55,16.64,6.59,2.77,3.19,4.05,7.23,4.05,11.91,0,5.1-1.5,9.78-4.7,12.97-3.41,3.62-9.82,5.53-16.01,5.53h-26.67v-36.99ZM719.31,166.51c-3.41,3.19-8.32,5.1-15.79,5.1h-30.3v-37.84h30.3c8.32,0,13.44,2.34,16.64,6.16,2.77,3.4,4.69,7.65,4.69,12.75,0,5.53-2.13,10.42-5.55,13.82h0ZM909.29,69.79h0c-11.95-15.31-29.88-24.66-55.7-24.66h-52.5v153.05h52.5c26.89,0,45.67-10.21,57.62-27.42,9.18-12.97,14.51-29.76,14.51-49.1,0-20.62-5.98-38.47-16.43-51.86ZM889.02,153.76c-7.04,11.05-17.92,17.85-35.42,17.85h-24.76v-99.9h24.76c17.07,0,27.74,6.16,34.78,16.8,5.76,8.5,8.96,19.98,8.96,33.16s-2.98,23.6-8.32,32.1ZM297.36,68.73c17.29,0,31.75,10.63,35.8,26.57h27.46c-5.06-31.9-30.31-53.14-63.27-53.14-41.3,0-69.58,33.59-69.58,79.5s28.28,79.5,69.58,79.5c32.55,0,58.39-20.89,63.06-52.51l-27.46.21c-4.38,15.8-18.72,25.72-35.6,25.72-25.43,0-41.62-22.32-41.62-52.93s16.19-52.93,41.62-52.93ZM0,243.19h56.85v-26.58h-29.11V26.57h29.11V0H0v243.19ZM943.15,0v26.57h29.11v190.05h-29.11v26.57h56.85V0h-56.85ZM558.84,198.19h27.74V45.14h-27.74v153.05ZM403.84,45.1h54.86c18.71,0,30.83,5.1,38.91,13.82,7.65,8.08,12.12,19.14,12.12,31.89,0,14.88-7.02,27.43-18.5,34.45,3.4,1.49,6.17,3.61,8.51,6.38,3.61,4.47,5.74,10.42,5.74,21.26v45.29h-28.7v-42.95c0-5.74-1.28-8.5-3.19-10.63-2.34-2.55-5.95-4.04-12.12-4.04h-29.98v57.62h-27.64V45.1ZM476.34,108.46c3.61-4.04,5.53-9.14,5.53-15.31,0-5.32-1.49-10.84-5.32-15.1-3.61-4.04-9.57-6.59-20.41-6.59h-24.66v43.37h24.66c9.99,0,16.16-2.55,20.2-6.38Z"/>
</svg>